<?xml version="1.0" encoding="UTF-8"?>
<svg xmlns="http://www.w3.org/2000/svg" viewBox="0 0 1031.08338 1096.39604">
  <defs>
    <style>
      .cls-1 {
        fill: #003fff;
      }

      .cls-2 {
        fill: #ff5b00;
      }

      .cls-3 {
        stroke: #003eff;
      }

      .cls-3, .cls-4 {
        fill: none;
        stroke-linecap: round;
        stroke-miterlimit: 10;
        stroke-width: 95px;
      }

      .cls-4 {
        stroke: #ff5b00;
      }
    </style>
  </defs>
  <g id="Layer_2" data-name="Layer 2">
    <path class="cls-3" d="M454.19039,299.37343c-24.94785,38.73274-74.20623,61.65924-103.29372,42.92391-29.0875-18.73533-26.98927-72.03778-2.04142-110.77053,24.94785-38.73274,68.75215-54.94385,97.83965-36.20852,29.0875,18.73533,32.44335,65.3224,7.4955,104.05514Z"/>
    <path class="cls-3" d="M810.85085,183.02978c-30.37107,87.51353-55.08586,126.62979-80.46975,165.97604-33.36946,51.72428-86.64313,123.80498-170.80434,166.37705-.00006.00003-76.38965,38.64089-153.15239,32.061-42.62525-3.65372-63.20438-19.56336-69.55115-24.89915-.00009-.00006-13.22882-11.12156-22.0477-26.33228-20.59083-35.51489-11.82195-91.35754,19.52782-144.04983"/>
    <circle class="cls-1" cx="869.84544" cy="68.52431" r="40.19346"/>
  </g>
  <g id="Layer_3" data-name="Layer 3">
    <circle class="cls-2" cx="535.43228" cy="392.99457" r="53.30005"/>
    <path class="cls-4" d="M238.50084,952.47908c27.00561-54.12136,55.69446-95.59036,78.53654-124.94434,39.03376-50.16161,156.67203-201.33656,293.85682-196.27935,39.13248,1.44257,58.95655,14.82729,66.02228,20.19047,44.82789,34.02604,43.74788,100.12416,43.18274,134.71547-.27421,16.78206-1.72241,105.42147-64.24637,157.11208-4.91358,4.06222-9.27718,7.12974-12.40446,9.20568"/>
  </g>
</svg>